<svg id="Layer_1" data-name="Layer 1" xmlns="http://www.w3.org/2000/svg" viewBox="0 0 300.01 287.77"><defs><style>.cls-1{fill:#413f3d;}.cls-1,.cls-2,.cls-3,.cls-4,.cls-5,.cls-6{stroke:#fff;stroke-miterlimit:10;stroke-width:3px;}.cls-2{fill:#262626;}.cls-3{fill:#8b8c8a;}.cls-4{fill:#96ad22;}.cls-5{fill:#6d7d27;}.cls-6{fill:#c3d334;}</style></defs><line class="cls-1" x1="205.63" y1="194" x2="148.21" y2="160.85"/><polyline class="cls-1" points="205.63 193.73 205.63 127.43 148.21 94.28 148.21 160.85"/><line class="cls-1" x1="89.89" y1="261.35" x2="32.48" y2="228.2"/><polyline class="cls-1" points="89.89 261.08 89.89 194.78 32.48 161.63 32.48 228.2"/><line class="cls-1" x1="205.26" y1="260.74" x2="147.84" y2="227.59"/><polyline class="cls-1" points="205.26 260.47 205.26 194.17 147.84 161.03 147.84 227.59"/><line class="cls-2" x1="262.84" y1="94.14" x2="205.43" y2="127.29"/><polyline class="cls-2" points="262.84 94.41 262.84 160.71 205.43 193.86 205.43 127.29"/><line class="cls-2" x1="147.54" y1="161.5" x2="90.12" y2="194.65"/><polyline class="cls-2" points="147.54 161.77 147.54 228.07 90.12 261.22 90.12 194.65"/><line class="cls-2" x1="262.84" y1="160.6" x2="205.43" y2="193.75"/><polyline class="cls-2" points="262.84 160.87 262.84 227.17 205.43 260.32 205.43 193.75"/><polyline class="cls-3" points="263.04 94.23 205.63 61.08 148.21 94.23"/><polyline class="cls-3" points="263.04 94.23 205.63 127.38 148.21 94.23"/><line class="cls-1" x1="89.63" y1="195" x2="32.21" y2="161.85"/><polyline class="cls-1" points="89.63 194.73 89.63 128.43 32.21 95.28 32.21 161.85"/><line class="cls-2" x1="146.84" y1="95.14" x2="89.43" y2="128.29"/><polyline class="cls-2" points="146.84 95.41 146.84 161.71 89.43 194.86 89.43 128.29"/><polyline class="cls-3" points="147.04 95.23 89.63 62.08 32.21 95.23"/><polyline class="cls-3" points="147.04 95.23 89.63 128.38 32.21 95.23"/><line class="cls-4" x1="147.63" y1="162" x2="90.21" y2="128.85"/><polyline class="cls-4" points="147.63 161.73 147.63 95.43 90.21 62.28 90.21 128.85"/><line class="cls-5" x1="204.84" y1="62.14" x2="147.43" y2="95.29"/><polyline class="cls-5" points="204.84 62.41 204.84 128.71 147.43 161.86 147.43 95.29"/><polyline class="cls-6" points="205.04 62.23 147.63 29.08 90.21 62.23"/><polyline class="cls-6" points="205.04 62.23 147.63 95.38 90.21 62.23"/><polyline class="cls-3" points="147.26 161.74 89.84 128.59 32.43 161.74"/><polyline class="cls-3" points="147.26 161.74 89.84 194.89 32.43 161.74"/><polyline class="cls-3" points="262.7 160.77 205.28 127.63 147.87 160.77"/><polyline class="cls-3" points="262.7 160.77 205.28 193.92 147.87 160.77"/></svg>